
<svg width="34" height="29" viewBox="0 0 34 29" xmlns="http://www.w3.org/2000/svg" xmlns:xlink="http://www.w3.org/1999/xlink"><title>oral-maxillofacial-radiology-pathology-icon</title><defs><path id="a" d="M0.0003 0.319L33.462 0.319 33.462 28.9996 0.0003 28.9996z"/></defs><g transform="translate(0 -1)" fill="none" fill-rule="evenodd"><g transform="translate(0 .681)"><mask id="b" fill="#fff"><use xlink:href="#a"/></mask><path d="M16.731 25.177a8.125 8.125 0 0 1-8.126-8.126 8.125 8.125 0 0 1 8.126-8.127 8.125 8.125 0 0 1 8.126 8.127 8.125 8.125 0 0 1-8.126 8.126M29.638 5.099h-5.737l-1.749-3.497C21.8.892 20.87.319 20.077.319h-6.692c-.792 0-1.722.574-2.076 1.283L9.56 5.099H3.824A3.825 3.825 0 0 0 0 8.924v16.253A3.823 3.823 0 0 0 3.824 29h25.814a3.823 3.823 0 0 0 3.824-3.823V8.924a3.825 3.825 0 0 0-3.824-3.825" fill="#FFF" mask="url(#b)"/></g><path d="M16.731 12.473a5.258 5.258 0 1 1 0 10.517 5.259 5.259 0 1 1 0-10.517" fill="#FFF"/></g></svg>