
<svg width="24" height="37" viewBox="0 0 24 37" xmlns="http://www.w3.org/2000/svg" xmlns:xlink="http://www.w3.org/1999/xlink"><title>oral-oncology-clinic-icon</title><defs><path id="a" d="M0.0329 0.512L13.8729 0.512 13.8729 8.0615 0.0329 8.0615z"/><path id="c" d="M0 0.5448L23.906 0.5448 23.906 31.9998 0 31.9998z"/></defs><g transform="translate(0 -1)" fill="none" fill-rule="evenodd"><g transform="translate(5 .488)"><mask id="b" fill="#fff"><use xlink:href="#a"/></mask><path d="M6.953 3.029a.629.629 0 1 1 0 1.257.629.629 0 0 1 0-1.257M1.286 8.062H12.62c.692 0 1.253-.557 1.253-1.257V5.543c0-.694-.56-1.257-1.253-1.257h-2.521v-1.26A2.516 2.516 0 0 0 7.576.51H6.33a2.522 2.522 0 0 0-2.523 2.516v1.26H1.286c-.692 0-1.253.556-1.253 1.256v1.261c0 .694.56 1.258 1.253 1.258" fill="#FFF" mask="url(#b)"/></g><g transform="translate(0 5.488)"><mask id="d" fill="#fff"><use xlink:href="#c"/></mask><path d="M17.933 12.516H5.973a1.059 1.059 0 0 1-1.057-1.055c0-.581.475-1.056 1.056-1.056h11.961c.581 0 1.056.475 1.056 1.056 0 .58-.475 1.055-1.056 1.055m0 5.453H5.973a1.059 1.059 0 0 1-1.057-1.056c0-.58.475-1.055 1.056-1.055h11.961c.581 0 1.056.475 1.056 1.055s-.475 1.056-1.056 1.056M21.393.545H20.13v1.252a2.518 2.518 0 0 1-2.52 2.523H6.294a2.52 2.52 0 0 1-2.52-2.523V.545h-1.26a2.512 2.512 0 0 0-2.515 2.52V29.48a2.515 2.515 0 0 0 2.514 2.52h18.88a2.512 2.512 0 0 0 2.513-2.52V3.066A2.515 2.515 0 0 0 21.392.545" fill="#FFF" mask="url(#d)"/></g></g></svg>