
<svg width="23" height="31" viewBox="0 0 23 31" xmlns="http://www.w3.org/2000/svg"><title>hospital-based-dentistry-icon</title><g fill="#FFF" fill-rule="evenodd"><path d="M3.867.082C1.735.082 0 1.789 0 3.887 0 5.583 1.174 7.093 2.82 7.55v22.173c0 .569.47 1.031 1.048 1.031a1.04 1.04 0 0 0 1.048-1.031V7.55c1.645-.457 2.82-1.967 2.82-3.663C7.735 1.79 6 .082 3.866.082m18.226 3.282h-2.231A3.797 3.797 0 0 0 16.148.332h-3.95a.798.798 0 0 0-.798.798v6.065c0 .44.357.798.798.798h.351l-1.133 5.668a.819.819 0 0 0-.016.157v16.384c0 .44.357.798.798.798h3.191a.798.798 0 0 0 .798-.798V13.818a.78.78 0 0 0-.015-.157L15.04 7.993h1.108a3.797 3.797 0 0 0 3.714-3.032h2.231a.798.798 0 0 0 0-1.597"/></g></svg>