<svg width="25" height="34" viewBox="0 0 25 34" xmlns="http://www.w3.org/2000/svg"><title>pediatric-dentistry-icon</title><path d="M24.998 5.72c.1-4.382-3.486-6.42-5.579-5.505-1.964.864-6.398 1.277-6.921 1.321-.52-.044-4.955-.457-6.921-1.32C3.486-.702-.1 1.337.002 5.72c.096 4.381 2.686 10.6 2.686 12.435 0 1.834-.597 14.168 3.386 15.086 3.969.914 1.114-13.562 6.424-13.656 5.312.094 2.458 14.57 6.426 13.656 3.983-.918 3.384-13.252 3.384-15.086 0-1.836 2.59-8.054 2.69-12.435m-9.233-.864c.568 0 1.025.469 1.025 1.05 0 .58-.457 1.048-1.025 1.048a1.037 1.037 0 0 1-1.026-1.048c0-.581.46-1.05 1.026-1.05m-6.907 0c.567 0 1.026.469 1.026 1.05 0 .58-.459 1.048-1.026 1.048a1.037 1.037 0 0 1-1.024-1.048c0-.581.459-1.05 1.024-1.05m7.667 8.549a7.121 7.121 0 0 1-1.872 1.044c-.34.126-.696.22-1.057.29a6.813 6.813 0 0 1-1.104.099 6.747 6.747 0 0 1-1.098-.104 6.453 6.453 0 0 1-1.055-.29 7.307 7.307 0 0 1-1.874-1.031A8.694 8.694 0 0 1 6.96 11.96c-.433-.54-.818-1.12-1.085-1.76 1.045.868 2.097 1.625 3.203 2.195 1.105.569 2.263.918 3.42.916 1.157.006 2.303-.341 3.402-.92 1.104-.576 2.138-1.37 3.223-2.191a9.147 9.147 0 0 1-2.598 3.205" fill="#FEFEFE" fill-rule="evenodd"/></svg>