
<svg width="33" height="35" viewBox="0 0 33 35" xmlns="http://www.w3.org/2000/svg"><title>oral-health-icon</title><g fill="#FFF"><path d="M29.938 6.487a12.924 12.924 0 0 1-3.901-.691A15.598 15.598 0 0 0 21.459 5C20.255 5 18.27 6.138 17 7.045V34a8.587 8.587 0 0 1 4.459-1.487c1.7.058 3.392.272 5.053.64 1.134.254 2.288.413 3.449.475h2.66L33 6.488h-3.062zM10.23 31.441a22.178 22.178 0 0 0-6.247-2.08 1.111 1.111 0 0 1-.919-1.115V8H0v27c2.124 0 5.732-.186 7.459-.884A11.83 11.83 0 0 1 13 33.878a10.492 10.492 0 0 0-2.77-2.437z"/><path d="M10.681 1.9C9.09.822 6.481.249 5 0v27.142c2.13.435 4.188 1.18 6.111 2.209A13.337 13.337 0 0 1 15 33V7.653c-.8-1.456-2.785-4.713-4.319-5.753z"/></g></svg>